<svg width="269" height="108" viewBox="0 0 269 108" fill="none" xmlns="http://www.w3.org/2000/svg">
<path d="M86.7341 74.8815H77.3555V59.1777H86.3706V62.0858H80.8452V65.5756H86.0071V68.411H80.8452V71.9734H86.7341V74.8088V74.8815Z" fill="white"/>
<path d="M104.837 74.8815H95.5312V59.1777H99.0937V71.9734H104.91V74.8088L104.837 74.8815Z" fill="white"/>
<path d="M122.504 74.8815H113.125V59.1777H122.14V62.0858H116.615V65.5756H121.777V68.411H116.615V71.9734H122.504V74.8088V74.8815Z" fill="white"/>
<path d="M144.241 59.1777L138.861 74.8815H134.862L129.555 59.1777H133.335L136.607 70.0831C136.752 70.6648 136.898 71.1737 136.898 71.6826C136.898 71.1737 137.043 70.6648 137.261 70.0831L140.533 59.1777H144.241Z" fill="white"/>
<path d="M166.126 74.8815H162.273L161.183 71.3918H155.584L154.494 74.8815H150.641L156.384 59.1777H160.601L166.199 74.8815H166.126ZM160.31 68.7018L158.638 63.3945C158.493 63.031 158.42 62.5221 158.347 62.0131H158.274C158.274 62.4494 158.129 62.9583 157.984 63.3945L156.311 68.7018H160.31Z" fill="white"/>
<path d="M174.27 74.8815V59.1777H179.795C185.393 59.1777 188.156 61.7223 188.156 66.8115C188.156 71.9007 187.429 71.1737 185.902 72.6277C184.375 74.0818 182.34 74.8088 179.795 74.8088H174.27V74.8815ZM177.759 62.0858V72.0461H179.504C181.031 72.0461 182.267 71.6099 183.139 70.6648C184.012 69.7196 184.448 68.4837 184.448 66.8842C184.448 65.2848 184.012 64.1942 183.139 63.3218C182.267 62.4494 181.031 62.0131 179.504 62.0131H177.759V62.0858Z" fill="white"/>
<path d="M203.567 75.1721C201.314 75.1721 199.496 74.4451 198.042 72.991C196.661 71.537 195.934 69.6467 195.934 67.2475C195.934 64.8483 196.661 62.74 198.115 61.2132C199.569 59.6864 201.459 58.8867 203.858 58.8867C206.257 58.8867 207.93 59.6137 209.311 61.0678C210.692 62.5219 211.419 64.4848 211.419 66.884C211.419 69.2832 210.692 71.3189 209.238 72.8456C207.784 74.3724 205.967 75.0994 203.64 75.0994L203.567 75.1721ZM203.713 62.0129C202.477 62.0129 201.459 62.4491 200.732 63.3943C200.005 64.3394 199.641 65.5754 199.641 67.1021C199.641 68.6289 200.005 69.8648 200.732 70.81C201.459 71.7551 202.404 72.1913 203.567 72.1913C204.731 72.1913 205.748 71.7551 206.475 70.8827C207.203 70.0102 207.566 68.7743 207.566 67.2475C207.566 65.7208 207.203 64.3394 206.548 63.467C205.894 62.5946 204.876 62.0856 203.713 62.0856V62.0129Z" fill="white"/>
<path d="M233.304 74.8815H229.232L226.76 70.8102C226.542 70.5194 226.397 70.2285 226.252 70.0104C226.106 69.7923 225.888 69.5742 225.743 69.3561C225.597 69.138 225.379 69.0653 225.234 68.9926C225.016 68.9199 224.87 68.8472 224.652 68.8472H223.707V74.8815H220.145V59.1777H225.743C229.523 59.1777 231.486 60.6318 231.486 63.4672C231.486 66.3026 231.413 64.485 231.268 64.994C231.123 65.4302 230.832 65.8664 230.541 66.2299C230.25 66.5934 229.887 66.9569 229.45 67.175C229.014 67.4658 228.505 67.684 227.996 67.8294C228.215 67.9748 228.433 68.0475 228.651 68.1929C228.869 68.3383 229.087 68.5564 229.305 68.7745C229.523 68.9926 229.669 69.2107 229.887 69.5015C230.105 69.7923 230.25 70.0104 230.396 70.2285L233.376 74.8815H233.304ZM223.634 61.8677V66.2299H225.161C225.888 66.2299 226.542 66.0118 226.979 65.5756C227.415 65.1394 227.706 64.5577 227.706 63.9034C227.706 62.5221 226.906 61.8677 225.234 61.8677H223.634Z" fill="white"/>
<path d="M250.316 74.8815H240.938V59.1777H249.953V62.0858H244.427V65.5756H249.589V68.411H244.427V71.9734H250.316V74.8088V74.8815Z" fill="white"/>
<path d="M258.312 74.3006V70.8108C258.966 71.3198 259.621 71.756 260.348 71.9741C261.075 72.2649 261.874 72.3376 262.601 72.3376C263.328 72.3376 263.401 72.3376 263.765 72.1922C264.128 72.1195 264.346 71.9741 264.564 71.8287C264.782 71.6833 264.928 71.5379 265.073 71.3198C265.219 71.1016 265.219 70.8835 265.219 70.6654C265.219 70.4473 265.146 70.0838 264.928 69.8657C264.782 69.6476 264.492 69.4295 264.201 69.2114C263.91 68.9933 263.546 68.7752 263.11 68.6298C262.674 68.4116 262.238 68.2662 261.729 68.0481C260.493 67.5392 259.621 66.8849 258.966 66.1579C258.385 65.4308 258.094 64.5584 258.094 63.4679C258.094 62.3773 258.239 61.9411 258.603 61.3595C258.966 60.7779 259.402 60.2689 259.911 59.9054C260.493 59.5419 261.147 59.2511 261.874 59.033C262.601 58.8149 263.401 58.7422 264.273 58.7422C265.146 58.7422 265.8 58.7422 266.455 58.8876C267.109 58.9603 267.691 59.1057 268.199 59.3238V62.5954C267.909 62.3773 267.618 62.2319 267.327 62.0865C267.036 61.9411 266.673 61.8684 266.382 61.723C266.018 61.6503 265.728 61.5776 265.437 61.5049C265.146 61.4322 264.782 61.5049 264.492 61.5049C264.201 61.5049 263.692 61.5049 263.401 61.6503C263.038 61.723 262.819 61.8684 262.601 61.9411C262.383 62.0865 262.165 62.2319 262.092 62.45C261.947 62.6681 261.874 62.8862 261.874 63.1044C261.874 63.3225 261.874 63.6133 262.092 63.8314C262.238 64.0495 262.456 64.2676 262.674 64.413C262.965 64.6311 263.256 64.7765 263.619 64.9946C263.983 65.14 264.419 65.3581 264.855 65.5762C265.509 65.867 266.018 66.0852 266.527 66.4487C267.036 66.7395 267.472 67.103 267.836 67.4665C268.199 67.83 268.49 68.2662 268.636 68.7752C268.854 69.2841 268.926 69.793 268.926 70.4473C268.926 71.1016 268.781 72.0468 268.418 72.6284C268.054 73.21 267.618 73.7189 267.036 74.0825C266.455 74.446 265.8 74.7368 265.073 74.8822C264.346 75.0276 263.546 75.1003 262.674 75.1003C261.802 75.1003 261.002 75.0276 260.202 74.8822C259.402 74.7368 258.748 74.5187 258.166 74.2279L258.312 74.3006Z" fill="white"/>
<path d="M105.709 51.4721H98.7292L96.6935 45.147H86.5151L84.4795 51.4721H77.5L87.8965 22.9727H95.5303L105.709 51.4721ZM95.1668 40.2032L92.1132 30.6064C91.8951 29.8794 91.7497 29.007 91.6043 28.0618H91.4589C91.4589 28.8616 91.2408 29.734 90.95 30.5337L87.8238 40.2032H95.0941H95.1668Z" fill="white"/>
<path d="M126.212 51.4721H109.199V22.9727H115.597V46.3102H126.139V51.5448L126.212 51.4721Z" fill="white"/>
<path d="M150.132 28.2072H141.99V51.4721H135.519V28.2072H127.449V22.9727H150.132V28.2072Z" fill="white"/>
<path d="M160.382 22.9727V51.5448H153.984V22.9727H160.382Z" fill="white"/>
<path d="M186.847 28.2072H178.705V51.4721H172.234V28.2072H164.164V22.9727H186.847V28.2072Z" fill="white"/>
<path d="M213.964 39.1131C213.964 47.692 209.966 51.9815 201.968 51.9815C193.971 51.9815 190.336 47.7647 190.336 39.4039V22.9004H196.806V39.4766C196.806 44.0569 198.624 46.3834 202.186 46.3834C205.749 46.3834 207.494 44.1296 207.494 39.6947V22.9004H213.892V39.0404L213.964 39.1131Z" fill="white"/>
<path d="M220.145 51.4721V22.9727H230.25C240.356 22.9727 245.445 27.6256 245.445 36.8589C245.445 46.0921 244.064 44.8562 241.301 47.4735C238.538 50.0908 234.83 51.4721 230.25 51.4721H220.145ZM226.615 28.2072V46.3102H229.814C232.577 46.3102 234.758 45.5105 236.357 43.8383C237.957 42.1662 238.756 39.9124 238.756 37.0043C238.756 34.0962 237.957 32.1332 236.43 30.6064C234.903 29.0797 232.649 28.28 229.814 28.28H226.688L226.615 28.2072Z" fill="white"/>
<path d="M267.327 51.4721H250.242V22.9727H266.673V28.2073H256.64V34.5324H265.946V39.767H256.64V46.3102H267.327V51.5448V51.4721Z" fill="white"/>
<path d="M0.218108 78.3707L0 68.8467L30.6805 41.0742L63.1786 70.3007V75.2445L30.7532 46.5996L30.8259 52.125L0.218108 78.3707Z" fill="white"/>
<path d="M0.21875 61.3601V51.3271L30.8993 23.5547L63.1793 52.345V57.5795L30.8993 29.0801L30.8266 34.1693L0.21875 61.3601Z" fill="white"/>
<path d="M63.1778 46.1643L59.1064 42.4564V30.097L30.8251 5.30534V17.0832L0.144531 44.6375L0.217234 27.6251L30.9705 -0.00195312L63.1778 28.2067V46.1643Z" fill="white"/>
<path d="M76.9931 102.872V99.9642C77.502 100.4 78.0836 100.764 78.7379 100.982C79.3923 101.2 79.9739 101.346 80.6282 101.346C81.2825 101.346 81.3552 101.346 81.5733 101.273C81.8641 101.273 82.0823 101.127 82.3004 100.982C82.5185 100.837 82.5912 100.691 82.7366 100.546C82.8093 100.4 82.882 100.182 82.882 100.037C82.882 99.8915 82.8093 99.528 82.6639 99.3826C82.5185 99.2371 82.3004 99.019 82.0823 98.8009C81.8641 98.6555 81.5006 98.4374 81.2098 98.292C80.919 98.1466 80.4828 98.0012 80.0466 97.7831C79.0287 97.3469 78.229 96.838 77.7201 96.1836C77.2112 95.602 76.9931 94.8023 76.9931 93.9298C76.9931 93.0574 77.1385 92.6212 77.4293 92.185C77.7201 91.6761 78.0836 91.3126 78.5198 90.949C79.0287 90.6582 79.5377 90.3674 80.192 90.222C80.8463 90.0766 81.5006 90.0039 82.155 90.0039C82.8093 90.0039 83.4636 90.0039 83.9725 90.1493C84.4814 90.222 84.9904 90.3674 85.4266 90.5128V93.2755C85.2085 93.1301 84.9904 92.9847 84.6996 92.8393C84.4087 92.6939 84.1906 92.6212 83.8998 92.5485C83.609 92.4758 83.3182 92.4031 83.1001 92.4031C82.8093 92.4031 82.5912 92.4031 82.3004 92.4031C82.0095 92.4031 81.646 92.4031 81.3552 92.4758C81.0644 92.4758 80.8463 92.6212 80.6282 92.7666C80.4101 92.912 80.2647 93.0574 80.192 93.2028C80.1193 93.3482 80.0466 93.5663 80.0466 93.7117C80.0466 93.8571 80.0466 94.148 80.192 94.2934C80.3374 94.4388 80.4828 94.6569 80.7009 94.8023C80.919 94.9477 81.2098 95.0931 81.5006 95.2385C81.7914 95.3839 82.155 95.5293 82.5185 95.6747C83.0274 95.8928 83.5363 96.1109 83.8998 96.4017C84.336 96.6199 84.6996 96.9107 84.9904 97.2742C85.2812 97.6377 85.4993 97.9285 85.6447 98.3647C85.7901 98.8009 85.8628 99.2371 85.8628 99.7461C85.8628 100.255 85.7174 101.127 85.4266 101.564C85.1358 102.073 84.7723 102.436 84.2633 102.8C83.7544 103.09 83.2455 103.309 82.5912 103.454C81.9368 103.599 81.2825 103.672 80.5555 103.672C79.8285 103.672 79.1741 103.672 78.5198 103.454C77.8655 103.309 77.2839 103.163 76.8477 102.872H76.9931Z" fill="white"/>
<path d="M96.2597 99.5282H90.1527C90.2254 100.91 91.0978 101.564 92.6973 101.564C94.2967 101.564 94.6603 101.346 95.3873 100.837V102.945C94.5148 103.381 93.4243 103.672 91.9703 103.672C90.5162 103.672 89.2803 103.236 88.4078 102.436C87.5354 101.564 87.1719 100.401 87.1719 98.9466C87.1719 97.4926 87.6081 96.1839 88.5532 95.2388C89.4984 94.2936 90.5889 93.8574 91.8976 93.8574C93.2062 93.8574 94.2967 94.2936 95.0965 95.0934C95.8235 95.8931 96.187 96.9836 96.187 98.4377V99.6736L96.2597 99.5282ZM93.5697 97.7834C93.5697 96.402 93.0608 95.7477 91.9703 95.7477C90.8797 95.7477 91.0978 95.9658 90.7343 96.3293C90.3708 96.6928 90.2254 97.2017 90.08 97.7834H93.5697Z" fill="white"/>
<path d="M107.238 102.365C107.238 104.11 106.729 105.491 105.711 106.437C104.694 107.382 103.24 107.891 101.349 107.891C99.4591 107.891 99.0956 107.745 98.3685 107.382V104.91C99.3137 105.491 100.331 105.782 101.277 105.782C102.222 105.782 103.021 105.491 103.53 104.982C104.039 104.474 104.33 103.747 104.33 102.874V102.147C103.676 103.165 102.731 103.747 101.422 103.747C100.113 103.747 99.241 103.31 98.5866 102.511C97.9323 101.711 97.4961 100.548 97.4961 99.0935C97.4961 97.6395 97.8596 96.2581 98.6593 95.313C99.4591 94.3679 100.477 93.9316 101.786 93.9316C103.094 93.9316 103.749 94.3679 104.33 95.2403V94.1498H107.238V102.438V102.365ZM104.33 98.8754V98.1484C104.33 97.5668 104.185 97.0579 103.821 96.6216C103.458 96.1854 103.021 95.9673 102.44 95.9673C101.858 95.9673 101.277 96.1854 100.913 96.6943C100.55 97.2033 100.331 97.9303 100.331 98.8027C100.331 99.6752 100.477 100.184 100.84 100.693C101.204 101.129 101.64 101.347 102.294 101.347C102.949 101.347 103.385 101.129 103.749 100.62C104.112 100.184 104.33 99.5297 104.33 98.8027V98.8754Z" fill="white"/>
<path d="M118.578 103.383H115.67V101.928C114.943 103.019 113.997 103.601 112.834 103.601C110.653 103.601 109.562 102.292 109.562 99.6747V94.0039H112.471V99.3839C112.471 100.693 112.98 101.347 114.07 101.347C115.161 101.347 115.015 101.129 115.306 100.838C115.597 100.474 115.742 99.9655 115.742 99.3839V94.0039H118.65V103.383H118.578Z" fill="white"/>
<path d="M127.084 96.6216C126.72 96.4035 126.357 96.3308 125.848 96.3308C125.339 96.3308 124.757 96.5489 124.394 97.0579C124.03 97.4941 123.885 98.1484 123.885 98.9481V103.456H120.977V94.077H123.885V95.8219C124.321 94.586 125.193 93.9316 126.357 93.9316C127.52 93.9316 126.865 93.9316 127.084 94.077V96.7671V96.6216Z" fill="white"/>
<path d="M136.244 103.382H133.482V102.001C132.827 103.018 131.955 103.6 130.719 103.6C129.483 103.6 129.12 103.309 128.538 102.8C128.029 102.291 127.738 101.564 127.738 100.765C127.738 98.9471 128.829 97.8565 131.01 97.6384L133.554 97.2749C133.554 96.2571 132.973 95.7481 131.882 95.7481C130.792 95.7481 129.701 96.1116 128.683 96.766V94.5849C129.12 94.3668 129.629 94.2214 130.356 94.0033C131.083 93.8579 131.664 93.7852 132.246 93.7852C134.936 93.7852 136.244 95.0938 136.244 97.7838V103.382ZM133.554 99.6014V98.9471L131.882 99.1652C130.937 99.3106 130.501 99.7468 130.501 100.474C130.501 101.201 130.646 101.055 130.864 101.274C131.083 101.492 131.373 101.564 131.81 101.564C132.246 101.564 132.827 101.346 133.118 100.983C133.482 100.619 133.627 100.11 133.627 99.5287L133.554 99.6014Z" fill="white"/>
<path d="M147.662 103.382H144.754V98.1478C144.754 96.6937 144.245 95.9667 143.227 95.9667C142.209 95.9667 142.282 96.1848 141.991 96.5483C141.7 96.9118 141.482 97.4207 141.482 98.0024V103.382H138.574V94.0037H141.482V95.4578C142.137 94.2945 143.154 93.7129 144.463 93.7129C146.572 93.7129 147.589 95.0215 147.589 97.5661V103.31L147.662 103.382Z" fill="white"/>
<path d="M157.04 103.091C156.386 103.455 155.441 103.673 154.205 103.673C152.969 103.673 151.587 103.237 150.715 102.364C149.842 101.492 149.406 100.328 149.406 98.9471C149.406 97.5657 149.915 96.1116 150.86 95.1665C151.805 94.2214 153.114 93.7852 154.714 93.7852C156.313 93.7852 156.604 93.9306 157.113 94.2214V96.6933C156.531 96.257 155.804 96.0389 155.077 96.0389C154.35 96.0389 153.623 96.2571 153.114 96.766C152.605 97.2749 152.387 97.9292 152.387 98.8016C152.387 99.6741 152.605 100.256 153.114 100.765C153.55 101.274 154.205 101.492 155.004 101.492C155.804 101.492 156.458 101.274 157.113 100.837V103.164L157.04 103.091ZM152.605 107.526V106.29C152.823 106.29 153.041 106.29 153.259 106.29C153.987 106.29 154.423 106.072 154.423 105.636C154.423 105.199 154.059 105.054 153.405 105.054C152.751 105.054 153.187 105.054 153.041 105.054V103.382H154.641V104.109C155.804 104.109 156.386 104.691 156.386 105.636C156.386 106.581 155.441 107.526 153.478 107.526C151.515 107.526 152.896 107.526 152.678 107.526H152.605Z" fill="white"/>
<path d="M166.78 103.382H164.017V102.001C163.363 103.018 162.49 103.6 161.254 103.6C160.018 103.6 159.655 103.309 159.073 102.8C158.564 102.291 158.273 101.564 158.273 100.765C158.273 98.9471 159.364 97.8565 161.545 97.6384L164.09 97.2749C164.09 96.2571 163.508 95.7481 162.417 95.7481C161.327 95.7481 160.236 96.1116 159.219 96.766V94.5849C159.655 94.3668 160.164 94.2214 160.891 94.0033C161.618 93.8579 162.199 93.7852 162.781 93.7852C165.471 93.7852 166.78 95.0938 166.78 97.7838V103.382ZM164.017 99.6014V98.9471L162.345 99.1652C161.4 99.3106 160.963 99.7468 160.963 100.474C160.963 101.201 161.109 101.055 161.327 101.274C161.545 101.492 161.836 101.564 162.272 101.564C162.708 101.564 163.29 101.346 163.581 100.983C163.944 100.619 164.09 100.11 164.09 99.5287L164.017 99.6014Z" fill="white"/>
<path d="M183.283 103.382H180.375V98.1478C180.375 96.6937 179.866 95.9667 178.848 95.9667C177.83 95.9667 177.903 96.1848 177.612 96.5483C177.322 96.9118 177.103 97.4207 177.103 98.0024V103.382H174.195V94.0037H177.103V95.4578C177.758 94.2945 178.776 93.7129 180.084 93.7129C182.193 93.7129 183.21 95.0215 183.21 97.5661V103.31L183.283 103.382Z" fill="white"/>
<path d="M193.389 103.382H190.626V102.001C189.972 103.018 189.1 103.6 187.864 103.6C186.628 103.6 186.264 103.309 185.683 102.8C185.174 102.291 184.883 101.564 184.883 100.765C184.883 98.9471 185.973 97.8565 188.154 97.6384L190.699 97.2749C190.699 96.2571 190.117 95.7481 189.027 95.7481C187.936 95.7481 186.846 96.1116 185.828 96.766V94.5849C186.264 94.3668 186.773 94.2214 187.5 94.0033C188.227 93.8579 188.809 93.7852 189.39 93.7852C192.08 93.7852 193.389 95.0938 193.389 97.7838V103.382ZM190.699 99.6014V98.9471L189.027 99.1652C188.082 99.3106 187.646 99.7468 187.646 100.474C187.646 101.201 187.791 101.055 188.009 101.274C188.227 101.492 188.518 101.564 188.954 101.564C189.39 101.564 189.972 101.346 190.263 100.983C190.626 100.619 190.772 100.11 190.772 99.5287L190.699 99.6014Z" fill="white"/>
<path d="M195.061 103.165V100.838C195.57 101.129 196.006 101.347 196.515 101.493C197.024 101.638 197.46 101.711 197.824 101.711C198.187 101.711 198.769 101.711 199.06 101.493C199.35 101.347 199.496 101.129 199.496 100.838C199.496 100.548 199.496 100.475 199.278 100.402C199.06 100.329 198.987 100.184 198.769 100.111C198.551 100.039 198.333 99.966 198.042 99.8933C197.751 99.8206 197.533 99.7479 197.315 99.6752C196.951 99.5298 196.588 99.3843 196.297 99.2389C196.006 99.0935 195.788 98.8754 195.57 98.6573C195.352 98.4392 195.206 98.2211 195.134 97.9303C195.061 97.6395 194.988 97.3487 194.988 96.9125C194.988 96.4762 195.134 95.9673 195.352 95.5311C195.57 95.1676 195.861 94.8768 196.297 94.586C196.66 94.3679 197.097 94.1497 197.606 94.077C198.114 93.9316 198.623 93.9316 199.132 93.9316C199.641 93.9316 200.005 93.9316 200.368 94.0043C200.804 94.0043 201.241 94.1497 201.604 94.2952V96.5489C201.241 96.3308 200.877 96.1854 200.441 96.04C200.005 95.9673 199.641 95.8946 199.205 95.8946C198.769 95.8946 198.842 95.8946 198.696 95.8946C198.551 95.8946 198.405 95.9673 198.26 96.04C198.114 96.04 198.042 96.1854 197.969 96.2581C197.896 96.3308 197.824 96.4762 197.824 96.6216C197.824 96.767 197.824 96.9125 197.969 97.0579C198.114 97.2033 198.187 97.276 198.405 97.3487C198.551 97.4214 198.769 97.4941 198.987 97.5668C199.205 97.5668 199.423 97.7122 199.641 97.7849C200.005 97.9303 200.368 98.0757 200.659 98.2211C200.95 98.3665 201.241 98.5846 201.459 98.8027C201.677 99.0208 201.822 99.2389 201.968 99.5297C202.113 99.8206 202.113 100.184 202.113 100.548C202.113 100.911 201.968 101.565 201.75 102.002C201.532 102.365 201.168 102.729 200.804 102.947C200.368 103.165 199.932 103.383 199.423 103.456C198.914 103.601 198.333 103.601 197.824 103.601C196.806 103.601 195.861 103.456 194.988 103.092L195.061 103.165Z" fill="white"/>
<path d="M216.948 103.382H214.185V102.001C213.531 103.018 212.658 103.6 211.422 103.6C210.186 103.6 209.823 103.309 209.241 102.8C208.732 102.291 208.441 101.564 208.441 100.765C208.441 98.9471 209.532 97.8565 211.713 97.6384L214.258 97.2749C214.258 96.2571 213.676 95.7481 212.585 95.7481C211.495 95.7481 210.404 96.1116 209.387 96.766V94.5849C209.823 94.3668 210.332 94.2214 211.059 94.0033C211.786 93.8579 212.367 93.7852 212.949 93.7852C215.639 93.7852 216.948 95.0938 216.948 97.7838V103.382ZM214.258 99.6014V98.9471L212.585 99.1652C211.64 99.3106 211.204 99.7468 211.204 100.474C211.204 101.201 211.35 101.055 211.568 101.274C211.786 101.492 212.077 101.564 212.513 101.564C212.949 101.564 213.531 101.346 213.821 100.983C214.185 100.619 214.33 100.11 214.33 99.5287L214.258 99.6014Z" fill="white"/>
<path d="M222.107 103.382H219.199V89.4961H222.107V103.382Z" fill="white"/>
<path d="M230.25 103.311C229.814 103.529 229.16 103.674 228.287 103.674C226.252 103.674 225.234 102.584 225.234 100.475V96.186H223.707V94.0776H225.234V92.0419L228.142 91.2422V94.0776H230.25V96.186H228.142V99.9665C228.142 100.912 228.505 101.421 229.305 101.421C230.105 101.421 229.959 101.348 230.25 101.13V103.311Z" fill="white"/>
<path d="M240.792 103.383H237.884V101.928C237.157 103.019 236.212 103.601 235.049 103.601C232.868 103.601 231.777 102.292 231.777 99.6747V94.0039H234.685V99.3839C234.685 100.693 235.194 101.347 236.285 101.347C237.375 101.347 237.23 101.129 237.521 100.838C237.812 100.474 237.957 99.9655 237.957 99.3839V94.0039H240.865V103.383H240.792Z" fill="white"/>
<path d="M249.373 96.6216C249.009 96.4035 248.646 96.3308 248.137 96.3308C247.628 96.3308 247.046 96.5489 246.683 97.0579C246.319 97.4941 246.174 98.1484 246.174 98.9481V103.456H243.266V94.077H246.174V95.8219C246.61 94.586 247.482 93.9316 248.646 93.9316C249.809 93.9316 249.155 93.9316 249.373 94.077V96.7671V96.6216Z" fill="white"/>
<path d="M258.53 103.382H255.767V102.001C255.113 103.018 254.24 103.6 253.004 103.6C251.768 103.6 251.405 103.309 250.823 102.8C250.314 102.291 250.023 101.564 250.023 100.765C250.023 98.9471 251.114 97.8565 253.295 97.6384L255.84 97.2749C255.84 96.2571 255.258 95.7481 254.168 95.7481C253.077 95.7481 251.986 96.1116 250.969 96.766V94.5849C251.405 94.3668 251.914 94.2214 252.641 94.0033C253.368 93.8579 253.949 93.7852 254.531 93.7852C257.221 93.7852 258.53 95.0938 258.53 97.7838V103.382ZM255.767 99.6014V98.9471L254.095 99.1652C253.15 99.3106 252.713 99.7468 252.713 100.474C252.713 101.201 252.859 101.055 253.077 101.274C253.295 101.492 253.586 101.564 254.022 101.564C254.458 101.564 255.04 101.346 255.331 100.983C255.694 100.619 255.84 100.11 255.84 99.5287L255.767 99.6014Z" fill="white"/>
<path d="M260.206 103.165V100.838C260.714 101.129 261.151 101.347 261.66 101.493C262.168 101.638 262.605 101.711 262.968 101.711C263.332 101.711 263.913 101.711 264.204 101.493C264.495 101.347 264.64 101.129 264.64 100.838C264.64 100.548 264.64 100.475 264.422 100.402C264.204 100.329 264.131 100.184 263.913 100.111C263.695 100.039 263.477 99.966 263.186 99.8933C262.896 99.8206 262.677 99.7479 262.459 99.6752C262.096 99.5298 261.732 99.3843 261.441 99.2389C261.151 99.0935 260.933 98.8754 260.714 98.6573C260.496 98.4392 260.351 98.2211 260.278 97.9303C260.206 97.6395 260.133 97.3487 260.133 96.9125C260.133 96.4762 260.278 95.9673 260.496 95.5311C260.714 95.1676 261.005 94.8768 261.441 94.586C261.805 94.3679 262.241 94.1497 262.75 94.077C263.259 93.9316 263.768 93.9316 264.277 93.9316C264.786 93.9316 265.149 93.9316 265.513 94.0043C265.949 94.0043 266.385 94.1497 266.749 94.2952V96.5489C266.385 96.3308 266.022 96.1854 265.586 96.04C265.149 95.9673 264.786 95.8946 264.35 95.8946C263.913 95.8946 263.986 95.8946 263.841 95.8946C263.695 95.8946 263.55 95.9673 263.404 96.04C263.259 96.04 263.186 96.1854 263.114 96.2581C263.041 96.3308 262.968 96.4762 262.968 96.6216C262.968 96.767 262.968 96.9125 263.114 97.0579C263.259 97.2033 263.332 97.276 263.55 97.3487C263.695 97.4214 263.913 97.4941 264.131 97.5668C264.35 97.5668 264.568 97.7122 264.786 97.7849C265.149 97.9303 265.513 98.0757 265.804 98.2211C266.094 98.3665 266.385 98.5846 266.603 98.8027C266.821 99.0208 266.967 99.2389 267.112 99.5297C267.258 99.8206 267.258 100.184 267.258 100.548C267.258 100.911 267.112 101.565 266.894 102.002C266.676 102.365 266.313 102.729 265.949 102.947C265.513 103.165 265.077 103.383 264.568 103.456C264.059 103.601 263.477 103.601 262.968 103.601C261.95 103.601 261.005 103.456 260.133 103.092L260.206 103.165Z" fill="white"/>
</svg>
