<svg width="43" height="28" viewBox="0 0 43 28" fill="none" xmlns="http://www.w3.org/2000/svg">
<path d="M4.2695 28C3.19539 28 2.29861 27.6403 1.57917 26.9208C0.859722 26.2014 0.5 25.3046 0.5 24.2305V3.7695C0.5 2.69539 0.859722 1.79861 1.57917 1.07917C2.29861 0.359722 3.19539 0 4.2695 0H38.7305C39.8046 0 40.7014 0.359722 41.4208 1.07917C42.1403 1.79861 42.5 2.69539 42.5 3.7695V24.2305C42.5 25.3046 42.1403 26.2014 41.4208 26.9208C40.7014 27.6403 39.8046 28 38.7305 28H4.2695ZM4.2695 25.6667H38.7305C39.0898 25.6667 39.419 25.5171 39.7181 25.2181C40.0171 24.919 40.1667 24.5898 40.1667 24.2305V3.7695C40.1667 3.41017 40.0171 3.08097 39.7181 2.78192C39.419 2.48286 39.0898 2.33333 38.7305 2.33333H4.2695C3.91017 2.33333 3.58097 2.48286 3.28192 2.78192C2.98286 3.08097 2.83333 3.41017 2.83333 3.7695V24.2305C2.83333 24.5898 2.98286 24.919 3.28192 25.2181C3.58097 25.5171 3.91017 25.6667 4.2695 25.6667ZM12.7051 22.7949H30.2949V19.2051H12.7051V22.7949ZM5.70508 15.7949H9.29492V12.2051H5.70508V15.7949ZM12.7051 15.7949H16.2949V12.2051H12.7051V15.7949ZM19.7051 15.7949H23.2949V12.2051H19.7051V15.7949ZM26.7051 15.7949H30.2949V12.2051H26.7051V15.7949ZM33.7051 15.7949H37.2949V12.2051H33.7051V15.7949ZM5.70508 8.79492H9.29492V5.20508H5.70508V8.79492ZM12.7051 8.79492H16.2949V5.20508H12.7051V8.79492ZM19.7051 8.79492H23.2949V5.20508H19.7051V8.79492ZM26.7051 8.79492H30.2949V5.20508H26.7051V8.79492ZM33.7051 8.79492H37.2949V5.20508H33.7051V8.79492Z" fill="white"/>
</svg>
