<svg width="142" height="103" viewBox="0 0 142 103" fill="none" xmlns="http://www.w3.org/2000/svg">
<path fill-rule="evenodd" clip-rule="evenodd" d="M91.6018 44.5139C108.191 44.5139 116.485 58.8911 121.462 74.6506L125.609 87.0924C126.162 89.3043 123.674 91.2397 121.462 91.2397H107.638L105.703 84.6041C101.279 71.6093 94.6432 58.3381 82.2014 53.3614C85.5192 51.1495 88.0075 48.1082 89.6664 44.5139H91.6018ZM108.744 35.9429C124.503 36.4959 133.074 50.5965 138.051 66.0796L141.922 78.2449C142.475 80.4568 139.986 82.6687 137.775 82.6687H128.927L125.886 73.2682C121.739 60.2735 114.826 47.0023 102.385 42.0255C104.873 40.3666 106.808 38.4313 108.467 35.9429H108.744ZM12.8039 82.3922H4.23288C1.74452 82.3922 -0.46735 80.4568 0.0856184 77.9684L3.95638 65.8032C8.93309 50.3201 17.2276 36.2194 33.2637 35.6664C34.6461 38.1548 36.858 40.0902 39.3464 41.7491C27.1811 46.7258 20.269 59.7205 15.8452 72.9917L12.8039 82.3922ZM107.914 0C116.762 0 123.674 7.18858 123.674 15.7596C123.674 24.3306 118.144 29.8603 110.679 31.2427C111.509 29.0308 112.062 26.8189 112.062 24.3306C112.062 14.6536 105.426 6.63561 96.5785 4.42374C99.3434 1.6589 103.214 0 107.638 0L107.914 0ZM34.0931 0C38.5169 0 42.3876 1.6589 45.1525 4.42374C36.305 6.9121 29.6694 14.6536 29.6694 24.3306C29.6694 34.0075 30.2224 29.0308 31.0519 31.2427C23.8633 29.8603 18.0571 23.5011 18.0571 15.7596C18.0571 8.01803 25.2457 0 33.8167 0L34.0931 0ZM70.8655 55.8497C87.4546 55.8497 95.7491 70.2269 101.002 85.9865L104.873 98.4282C105.426 100.64 102.938 102.576 100.726 102.576H41.0052C38.5169 102.576 36.0285 100.64 36.858 98.4282L40.7288 85.9865C45.7055 70.2269 54.2765 55.8497 70.8655 55.8497ZM70.8655 19.9068C79.713 19.9068 86.6251 27.0954 86.6251 35.6664C86.6251 44.2374 79.4365 51.426 70.8655 51.426C62.2945 51.426 55.1059 44.2374 55.1059 35.6664C55.1059 27.0954 62.2945 19.9068 70.8655 19.9068ZM34.3696 90.9632H20.5454C18.0571 90.9632 15.8452 89.0278 16.3982 86.8159L20.2689 74.3742C25.5221 58.6146 33.8167 44.2374 50.4057 44.2374H52.3411C53.7235 47.8317 56.7649 50.873 59.8062 53.0849C47.6409 58.0616 40.4523 71.0564 36.305 84.3276L34.0931 90.9632H34.3696ZM50.4057 8.571C56.2119 8.571 61.4651 11.8888 64.2299 16.3125C56.2119 19.3539 50.4057 26.8189 50.4057 35.9429C50.4057 45.0669 50.4057 38.9842 50.9587 40.3666H50.4057C41.5583 40.3666 34.6461 33.1781 34.6461 24.6071C34.6461 16.0361 41.8347 8.84748 50.4057 8.84748V8.571ZM91.6018 8.571C100.449 8.571 107.361 15.7596 107.361 24.3306C107.361 32.9016 100.173 40.0902 91.6018 40.0902H91.0488C91.6018 38.7077 91.6018 37.0488 91.6018 35.6664C91.6018 26.5424 85.7957 19.0774 77.7776 16.0361C80.5425 11.6123 85.5192 8.29451 91.6018 8.29451V8.571Z" fill="white"/>
</svg>
