<svg width="50" height="51" viewBox="0 0 50 51" fill="none" xmlns="http://www.w3.org/2000/svg">
<path fill-rule="evenodd" clip-rule="evenodd" d="M23.4844 0.78125V6.07812H27.0156V0.78125H23.4844ZM33.3937 34.7972C35.9778 32.5319 37.6094 29.2065 37.6094 25.5C37.6094 18.6741 32.0759 13.1406 25.25 13.1406C18.4241 13.1406 12.8906 18.6741 12.8906 25.5C12.8906 25.7504 12.8981 25.999 12.9128 26.2457C11.7037 26.6706 10.575 27.266 9.55538 28.003C9.42637 27.1877 9.35938 26.3517 9.35938 25.5C9.35938 16.7238 16.4738 9.60937 25.25 9.60937C34.0261 9.60937 41.1406 16.7238 41.1406 25.5C41.1406 29.8585 39.3859 33.8072 36.5444 36.6781C35.6471 35.847 34.5769 35.2 33.3937 34.7972ZM44.6719 23.7344H49.9688V27.2656H44.6719V23.7344ZM45.7742 11.6115L41.187 14.26L42.9526 17.3181L47.5398 14.6697L45.7742 11.6115ZM33.432 7.79751L36.0804 3.21028L39.1386 4.9759L36.4901 9.56313L33.432 7.79751ZM11.3615 4.9759L14.01 9.56313L17.0681 7.7975L14.4197 3.21028L11.3615 4.9759ZM7.5474 17.3181L2.96017 14.6697L4.72579 11.6115L9.31302 14.26L7.5474 17.3181ZM5.82812 23.7344H0.53125V27.2656H5.82812V23.7344ZM45.7743 39.3884L41.1871 36.74L42.9527 33.6819L47.5399 36.3303L45.7743 39.3884Z" fill="url(#paint0_linear_247_1144)"/>
<path fill-rule="evenodd" clip-rule="evenodd" d="M17.3047 46.6871C17.3538 46.6871 17.4028 46.6867 17.4518 46.686H30.4289C30.4515 46.6865 30.4741 46.6869 30.4968 46.6871H30.5469V46.6873C30.5469 46.6873 30.5469 46.6873 30.5469 46.6873C33.4723 46.6873 35.8438 44.3158 35.8438 41.3904C35.8438 38.465 33.4723 36.0935 30.5469 36.0935C29.1884 36.0935 27.9494 36.6049 27.0119 37.4457C27.0193 37.2902 27.023 37.1338 27.023 36.9766C27.023 35.7843 26.8081 34.6422 26.415 33.5869C27.6478 32.9328 29.0541 32.5623 30.5469 32.5623C35.4225 32.5623 39.375 36.5148 39.375 41.3904C39.375 46.2661 35.4225 50.2186 30.5469 50.2186C30.5253 50.2186 30.5037 50.2185 30.4822 50.2183L17.3731 50.2183V50.2182C17.3503 50.2183 17.3275 50.2184 17.3047 50.2184C9.99124 50.2184 4.0625 44.2896 4.0625 36.9762C4.0625 29.6627 9.99124 23.7339 17.3047 23.7339C23.082 23.7339 27.9952 27.4336 29.8043 32.593C28.5853 32.6945 27.4368 33.0437 26.409 33.59C25.0347 29.8964 21.477 27.2652 17.3047 27.2652C11.9415 27.2652 7.59375 31.6129 7.59375 36.9762C7.59375 42.3394 11.9415 46.6871 17.3047 46.6871Z" fill="url(#paint1_linear_247_1144)"/>
<defs>
<linearGradient id="paint0_linear_247_1144" x1="25.25" y1="0.78125" x2="25.25" y2="39.3885" gradientUnits="userSpaceOnUse">
<stop stop-color="#EFC977"/>
<stop offset="1" stop-color="#E07256"/>
</linearGradient>
<linearGradient id="paint1_linear_247_1144" x1="21.7188" y1="23.7339" x2="21.7188" y2="50.2186" gradientUnits="userSpaceOnUse">
<stop stop-color="#B2D4F7"/>
<stop offset="1" stop-color="#D9E2F3"/>
</linearGradient>
</defs>
</svg>
