<svg width="42" height="42" viewBox="0 0 42 42" fill="none" xmlns="http://www.w3.org/2000/svg">
<path d="M16.6472 42L15.8037 35.2514C15.0589 35.027 14.2535 34.6739 13.3875 34.1921C12.5214 33.7106 11.7849 33.1948 11.1778 32.6445L4.95366 35.2917L0.60141 27.7083L5.98149 23.6518C5.91266 23.2303 5.85588 22.7959 5.81116 22.3487C5.76605 21.9014 5.74349 21.4669 5.74349 21.0449C5.74349 20.6529 5.76605 20.2409 5.81116 19.8088C5.85588 19.3764 5.91266 18.8895 5.98149 18.3482L0.60141 14.2917L4.95366 6.79817L11.1329 9.40042C11.8298 8.8202 12.5837 8.29675 13.3945 7.83008C14.2049 7.36342 14.993 7.00292 15.7587 6.74858L16.6472 0H25.3528L26.1963 6.7935C27.0908 7.10772 27.8812 7.46822 28.5676 7.875C29.254 8.28178 29.9608 8.79025 30.688 9.40042L37.0463 6.79817L41.3986 14.2917L35.8388 18.4829C35.9675 18.9644 36.0395 19.4063 36.0547 19.8088C36.0694 20.2109 36.0768 20.608 36.0768 21C36.0768 21.3621 36.0619 21.7441 36.0319 22.1462C36.002 22.5487 35.9331 23.0356 35.8254 23.6069L41.2953 27.7083L36.9431 35.2917L30.688 32.5996C29.9608 33.2097 29.2293 33.7332 28.4935 34.1699C27.7577 34.6066 26.992 34.9522 26.1963 35.2065L25.3528 42H16.6472ZM18.6667 39.6667H23.2301L24.0917 33.3486C25.2673 33.0375 26.3254 32.6105 27.2662 32.0676C28.2073 31.5247 29.1653 30.7806 30.1402 29.8352L35.9602 32.3167L38.2801 28.35L33.1736 24.5134C33.368 23.8492 33.4967 23.2382 33.5597 22.6806C33.6224 22.1225 33.6537 21.5623 33.6537 21C33.6537 20.4077 33.6224 19.8475 33.5597 19.3194C33.4967 18.7917 33.368 18.2107 33.1736 17.5764L38.3699 13.65L36.05 9.68333L30.0953 12.1783C29.3895 11.4036 28.4614 10.6773 27.3111 9.9995C26.1611 9.32205 25.073 8.87269 24.0467 8.65142L23.3333 2.33333H18.6801L17.9532 8.6065C16.7776 8.85772 15.6969 9.26236 14.7111 9.82041C13.7256 10.3781 12.7452 11.1446 11.7699 12.1199L5.94999 9.68333L3.63008 13.65L8.69166 17.4283C8.49722 17.9517 8.3611 18.5201 8.28333 19.1333C8.20555 19.7466 8.16666 20.3838 8.16666 21.0449C8.16666 21.6372 8.20555 22.225 8.28333 22.8083C8.3611 23.3917 8.48224 23.96 8.64674 24.5134L3.63008 28.35L5.94999 32.3167L11.725 29.8667C12.6404 30.7911 13.5909 31.5323 14.5763 32.0903C15.5622 32.648 16.6728 33.0824 17.9083 33.3935L18.6667 39.6667ZM20.937 26.8333C22.5645 26.8333 23.9437 26.2679 25.0746 25.137C26.2051 24.0065 26.7703 22.6275 26.7703 21C26.7703 19.3725 26.2051 17.9935 25.0746 16.863C23.9437 15.7321 22.5645 15.1667 20.937 15.1667C19.3009 15.1667 17.9196 15.7321 16.793 16.863C15.6668 17.9935 15.1037 19.3725 15.1037 21C15.1037 22.6275 15.6668 24.0065 16.793 25.137C17.9196 26.2679 19.3009 26.8333 20.937 26.8333Z" fill="white"/>
</svg>
