<svg width="52" height="38" viewBox="0 0 52 38" fill="none" xmlns="http://www.w3.org/2000/svg">
<path d="M10.4746 37.5V34H14.0504L18.5468 18.9278C18.8131 18.0062 19.3232 17.2739 20.0768 16.731C20.8309 16.1881 21.6686 15.9167 22.5898 15.9167H29.4102C30.3314 15.9167 31.1691 16.1881 31.9232 16.731C32.6768 17.2739 33.1869 18.0062 33.4533 18.9278L37.9496 34H41.5254V37.5H10.4746ZM17.7388 34H34.2612L30.0833 19.9329C30.0386 19.768 29.9527 19.6409 29.8255 19.5514C29.6983 19.4616 29.5525 19.4167 29.388 19.4167H22.612C22.4475 19.4167 22.3017 19.4616 22.1745 19.5514C22.0473 19.6409 21.9614 19.768 21.9167 19.9329L17.7388 34ZM24.25 10.5319V0.0319214H27.75V10.5319H24.25ZM37.55 16.0602L35.0551 13.5653L42.5083 6.17034L44.9449 8.60692L37.55 16.0602ZM40.5833 26.8653V23.3653H51.0833V26.8653H40.5833ZM14.45 16.0602L7.05508 8.60692L9.49167 6.17034L16.9449 13.5653L14.45 16.0602ZM0.916666 26.8653V23.3653H11.4167V26.8653H0.916666Z" fill="white"/>
</svg>
