<svg width="92" height="131" viewBox="0 0 92 131" fill="none" xmlns="http://www.w3.org/2000/svg">
<path d="M46.1207 0C54.567 0 62.5306 3.37753 68.3224 9.16759C73.8728 14.7164 77.4927 22.6777 77.4927 31.1215C77.4927 39.5654 75.8034 42.4604 72.9075 47.5267C84.7324 55.9705 92.2134 69.4807 92.2134 84.9208C92.2134 110.252 71.7009 131 46.1207 131C20.5404 131 0.0279541 110.252 0.0279541 84.9208C0.0279541 59.5893 7.50897 55.7293 19.3338 47.5267C16.4379 42.7017 14.7487 37.1529 14.7487 31.1215C14.7487 22.6777 18.1272 14.7164 23.9189 9.16759C29.7107 3.37753 37.433 0 46.1207 0ZM63.9786 74.0645C62.772 73.582 61.0827 73.3407 58.4281 73.3407C55.7736 73.3407 54.0843 73.8232 52.3951 74.547C50.4645 75.512 49.0165 76.9595 47.8099 78.6482C46.8446 80.337 46.362 82.5083 46.362 84.9208C46.362 87.3333 46.8446 89.2634 47.8099 91.1934C48.5339 92.8821 49.9818 94.3297 51.4298 95.2947C53.119 96.0184 55.2909 96.7422 57.9455 96.7422C60.6 96.7422 61.8067 96.2597 63.4959 96.0184C64.9439 95.5359 66.8745 94.5709 69.0464 93.1234V83.7146H58.4281V88.2983H63.0133V90.4696C62.048 90.9521 61.324 91.4346 60.6001 91.6759C59.8761 91.6759 59.1521 91.6759 58.1868 91.6759C56.7389 91.6759 55.5323 91.1934 54.567 90.2284C53.6017 89.0221 53.119 87.3333 53.119 84.9208C53.119 82.5083 53.6017 81.0608 54.567 79.8545C55.2909 78.8895 56.7389 78.407 57.9455 78.407C59.1521 78.407 59.8761 78.8895 60.3587 79.1308C61.0827 79.6133 61.5653 80.0958 61.8067 81.0608L68.3224 79.8545C67.8397 78.407 67.3571 77.2007 66.6331 76.2357C65.9092 75.512 64.9439 74.7882 63.4959 74.3057L63.9786 74.0645ZM46.362 96.0184L37.9157 82.0258L46.1207 73.582H36.9504L29.7107 82.0258V73.582H22.7123V96.0184H29.7107V90.4696L33.0892 86.8508L37.6744 96.0184H46.1207H46.362ZM46.1207 38.8416C53.119 38.8416 59.6348 40.2891 65.4265 43.1842C67.5984 39.8066 68.805 35.7053 68.805 31.1215C68.805 26.5378 66.3918 19.0589 62.048 14.9576C57.9455 10.8564 52.3951 8.20258 45.8793 8.20258C39.3636 8.20258 33.8132 10.8564 29.7107 14.9576C25.3669 19.0589 22.9536 24.849 22.9536 31.1215C22.9536 37.3941 24.4016 39.5654 26.3322 43.1842C32.1239 40.5304 38.6396 38.8416 45.638 38.8416H46.1207Z" fill="white"/>
</svg>
